<svg width="25" height="24" viewBox="0 0 25 24" fill="none" xmlns="http://www.w3.org/2000/svg">
<path d="M12.0379 8.32172C12.1966 7.89276 12.8034 7.89276 12.9621 8.32172L13.6735 10.2443C13.7733 10.514 13.986 10.7267 14.2557 10.8265L16.1783 11.5379C16.6072 11.6966 16.6072 12.3034 16.1783 12.4621L14.2557 13.1735C13.986 13.2733 13.7733 13.486 13.6735 13.7557L12.9621 15.6783C12.8034 16.1072 12.1966 16.1072 12.0379 15.6783L11.3265 13.7557C11.2267 13.486 11.014 13.2733 10.7443 13.1735L8.82172 12.4621C8.39276 12.3034 8.39276 11.6966 8.82172 11.5379L10.7443 10.8265C11.014 10.7267 11.2267 10.514 11.3265 10.2443L12.0379 8.32172Z" stroke="#636F85" stroke-width="1.5"/>
<path d="M12.5 22C18.0228 22 22.5 17.5228 22.5 12C22.5 6.47715 18.0228 2 12.5 2C6.97715 2 2.5 6.47715 2.5 12C2.5 17.5228 6.97715 22 12.5 22Z" stroke="#636F85" stroke-width="1.5"/>
<path d="M8.5 8C9.17327 4.46819 10.7109 2 12.5 2C14.2891 2 15.8267 4.46819 16.5 8" stroke="#636F85" stroke-width="1.5" stroke-linecap="round" stroke-linejoin="round"/>
<path d="M8.5 16C9.17327 19.5318 10.7109 22 12.5 22C14.2891 22 15.8267 19.5318 16.5 16" stroke="#636F85" stroke-width="1.5" stroke-linecap="round" stroke-linejoin="round"/>
<path d="M2.5 12H5M22.5 12H20" stroke="#636F85" stroke-width="1.5" stroke-linecap="round" stroke-linejoin="round"/>
</svg>
